<?xml version="1.0" encoding="UTF-8"?>
<svg version="1.1" xmlns="http://www.w3.org/2000/svg" width="500" height="500">
<path d="M0 0 C165 0 330 0 500 0 C500 165 500 330 500 500 C335 500 170 500 0 500 C0 335 0 170 0 0 Z " fill="#1E1E1E" transform="translate(0,0)"/>
<path d="M0 0 C-0.03552979 0.72179443 -0.07105957 1.44358887 -0.10766602 2.18725586 C-0.264642 5.43710424 -0.41367651 8.68726853 -0.5625 11.9375 C-0.61857422 13.07380859 -0.67464844 14.21011719 -0.73242188 15.38085938 C-0.78076172 16.46044922 -0.82910156 17.54003906 -0.87890625 18.65234375 C-0.94960327 20.15269165 -0.94960327 20.15269165 -1.02172852 21.68334961 C-1.27082125 23.96266002 -1.27082125 23.96266002 0 25 C2.55589888 25.09506052 5.08467972 25.12556761 7.64086914 25.11352539 C8.44080795 25.11367142 9.24074677 25.11381744 10.06492615 25.1139679 C12.72169665 25.11326855 15.37839793 25.10547518 18.03515625 25.09765625 C19.87218691 25.09579215 21.70921806 25.09436821 23.54624939 25.09336853 C28.39109662 25.08954275 33.23591408 25.07971196 38.08074951 25.06866455 C43.02062578 25.05845172 47.96050685 25.05387119 52.90039062 25.04882812 C62.60027563 25.03808974 72.30013069 25.02049246 82 25 C81.34 16.75 80.68 8.5 80 0 C91.59391717 3.86463906 99.21668191 8.0839871 105 19 C105.61875 20.10601562 105.61875 20.10601562 106.25 21.234375 C109.95122521 28.89385495 109.37042643 36.70656371 109 45 C105.535 45.495 105.535 45.495 102 46 C101.67 63.82 101.34 81.64 101 100 C96.05 102.31 91.1 104.62 86 107 C83.2264001 108.37045719 80.48126136 109.74243666 77.75 111.1875 C76.81607422 111.66219727 76.81607422 111.66219727 75.86328125 112.14648438 C72.41312572 113.9680181 69.88922486 115.53420368 68 119 C67.17786196 122.76813271 67.14157987 126.4675611 69.0546875 129.8828125 C70.8193356 132.04424538 72.49060847 133.74530423 75 135 C82.10813232 135.68454578 86.85257411 133.70506837 93.1875 130.625 C94.93069794 129.80406793 96.67417881 128.98373632 98.41796875 128.1640625 C99.17875732 127.79748535 99.9395459 127.4309082 100.72338867 127.05322266 C103.1106989 125.94878766 105.55773092 124.97690763 108 124 C107.01 130.435 107.01 130.435 106 137 C106.99 137 107.98 137 109 137 C108.01 140.96 108.01 140.96 107 145 C100.06250759 145.83759857 93.12482481 146.67360672 86.18701172 147.50854492 C83.83019745 147.79236416 81.4734259 148.07653835 79.11669922 148.36108398 C75.71593398 148.77162034 72.31501371 149.18085119 68.9140625 149.58984375 C67.87198639 149.71592514 66.82991028 149.84200653 65.7562561 149.97190857 C45.23177523 152.43515623 26.55751608 151.60645925 6.0625 149.0625 C3.7416347 148.78108961 1.42067156 148.50048495 -0.90039062 148.22070312 C-9.60291757 147.16841983 -18.30211228 146.08990096 -27 145 C-27.66 142.36 -28.32 139.72 -29 137 C-27.68 137 -26.36 137 -25 137 C-25.33 135.7625 -25.66 134.525 -26 133.25 C-26.79891159 130.25408155 -27 128.19892281 -27 125 C-23.45146002 126.0770329 -20.10722382 127.36850351 -16.7578125 128.9453125 C-15.62279297 129.47705078 -15.62279297 129.47705078 -14.46484375 130.01953125 C-12.90828887 130.75493197 -11.35612945 131.49971094 -9.80859375 132.25390625 C-4.57228047 134.68092412 -0.7755174 135.51254592 5 135 C8.8612686 133.32118757 10.43211031 131.85034858 12 128 C12.57889354 123.24115461 12.63023426 118.13322526 10 114 C8.35321567 113.28563063 6.68157322 112.62811921 5 112 C2.93601383 111.07179466 0.87783216 110.13062179 -1.17578125 109.1796875 C-2.74066284 108.45628174 -2.74066284 108.45628174 -4.3371582 107.71826172 C-5.649021 107.10998535 -6.96088379 106.50170898 -8.3125 105.875 C-12.499375 103.93625 -16.68625 101.9975 -21 100 C-21.33 82.51 -21.66 65.02 -22 47 C-24.31 46.34 -26.62 45.68 -29 45 C-29.6859413 33.35805191 -28.46560464 21.9904915 -20.6875 12.7734375 C-15.44618392 7.26520255 -8.28217515 0 0 0 Z " fill="#707D90" transform="translate(210,177)"/>
<path d="M0 0 C1.70676935 0.54574163 3.41380908 1.09063824 5.12109375 1.63476562 C7.76991256 2.48257435 10.41662308 3.33543644 13.05908203 4.20288086 C15.6386827 5.04719646 18.22462418 5.86895562 20.8125 6.6875 C21.59089233 6.94887253 22.36928467 7.21024506 23.17126465 7.47953796 C32.04069995 10.24127652 39.48169896 8.2395148 48.10546875 5.45703125 C48.94414993 5.19446533 49.78283112 4.93189941 50.64692688 4.66137695 C53.29838636 3.83018585 55.94621987 2.98814611 58.59375 2.14453125 C61.25242907 1.30243535 63.91182555 0.46279341 66.57270813 -0.37231445 C68.2202475 -0.88988085 69.86647979 -1.41163284 71.51115417 -1.93823242 C80.09969641 -4.64687116 80.09969641 -4.64687116 83.90625 -4.85546875 C85.96912949 -3.3189833 86.8012122 -2.39850099 87.29393005 0.14878845 C87.30203453 1.29318138 87.30203453 1.29318138 87.31030273 2.46069336 C87.32298691 3.32846909 87.33567108 4.19624481 87.34873962 5.09031677 C87.34580399 6.02473099 87.34286835 6.9591452 87.33984375 7.921875 C87.3450856 8.88476944 87.35032745 9.84766388 87.35572815 10.83973694 C87.36215251 12.87646521 87.36080601 14.91323056 87.35229492 16.94995117 C87.34379124 20.06691596 87.37253065 23.18204477 87.40429688 26.29882812 C87.40590911 28.2773432 87.40533093 30.25586152 87.40234375 32.234375 C87.41357773 33.16676498 87.42481171 34.09915497 87.43638611 35.05979919 C87.3675136 41.45392625 87.3675136 41.45392625 85.29174805 44.56176758 C82.37196988 46.49902291 79.44786244 47.95775722 76.2421875 49.37890625 C75.60890533 49.66179504 74.97562317 49.94468384 74.32315063 50.23614502 C72.99209858 50.82860386 71.6590746 51.41665022 70.32421875 52.00048828 C68.27665107 52.89654383 66.23567399 53.80642113 64.1953125 54.71875 C54.21659108 59.14453125 54.21659108 59.14453125 51.90625 59.14453125 C51.90625 69.70453125 51.90625 80.26453125 51.90625 91.14453125 C49.59625 91.14453125 47.28625 91.14453125 44.90625 91.14453125 C44.90625 80.58453125 44.90625 70.02453125 44.90625 59.14453125 C42.92625 58.48453125 40.94625 57.82453125 38.90625 57.14453125 C37.6378125 56.27828125 37.6378125 56.27828125 36.34375 55.39453125 C33.97531523 53.8397588 33.97531523 53.8397588 31.46875 54.76953125 C30.623125 55.22328125 29.7775 55.67703125 28.90625 56.14453125 C26.92625 57.13453125 24.94625 58.12453125 22.90625 59.14453125 C22.57625 69.70453125 22.24625 80.26453125 21.90625 91.14453125 C19.26625 91.14453125 16.62625 91.14453125 13.90625 91.14453125 C13.90625 80.58453125 13.90625 70.02453125 13.90625 59.14453125 C10.93625 58.15453125 7.96625 57.16453125 4.90625 56.14453125 C2.77065952 55.21593846 0.65232895 54.24602519 -1.44140625 53.2265625 C-2.93039429 52.50690308 -2.93039429 52.50690308 -4.44946289 51.77270508 C-5.67270264 51.17353271 -6.89594238 50.57436035 -8.15625 49.95703125 C-12.095625 48.03890625 -16.035 46.12078125 -20.09375 44.14453125 C-20.09375 28.30453125 -20.09375 12.46453125 -20.09375 -3.85546875 C-14.76495353 -6.51986699 -5.40308252 -1.77212187 0 0 Z " fill="#010201" transform="translate(217.09375,226.85546875)"/>
<path d="M0 0 C0.66 0.33 1.32 0.66 2 1 C1.51853516 2.41732422 1.51853516 2.41732422 1.02734375 3.86328125 C-4.12616554 22.07173879 1.11096543 44.76674883 10 61 C10.52464844 61.98097656 11.04929688 62.96195313 11.58984375 63.97265625 C15.00841638 70.10438176 18.81072888 75.52980179 23.3984375 80.84375 C27.0877931 85.81088242 26.49772783 92.07897806 26 98 C25.41679018 101.26827055 24.70846723 104.50688275 24 107.75 C21.92430532 117.33061149 20.96429426 126.43787974 22.50878906 136.22363281 C23.01215067 140.09341282 23.11332247 143.78270387 23.09765625 147.68359375 C23.0962413 148.38396255 23.09482635 149.08433136 23.09336853 149.80592346 C23.08782477 152.01649466 23.07528326 154.22696004 23.0625 156.4375 C23.05747771 157.94726415 23.05291609 159.45702991 23.04882812 160.96679688 C23.03787387 164.64456493 23.0206489 168.32227212 23 172 C17.71715691 175.04779409 12.26419045 175.12506509 6.2890625 175.09765625 C5.04511719 175.09443359 3.80117187 175.09121094 2.51953125 175.08789062 C1.23433594 175.07951172 -0.05085938 175.07113281 -1.375 175.0625 C-2.68339844 175.05798828 -3.99179688 175.05347656 -5.33984375 175.04882812 C-8.55994281 175.03707594 -11.7799477 175.02064543 -15 175 C-15 171 -15 171 -13.49609375 169.4375 C-12.81675781 168.963125 -12.13742188 168.48875 -11.4375 168 C-10.77621094 167.525625 -10.11492187 167.05125 -9.43359375 166.5625 C-6.35261617 164.58434425 -3.19129592 162.79486219 0 161 C-0.49290527 160.71390869 -0.98581055 160.42781738 -1.49365234 160.13305664 C-26.01902953 145.79844587 -26.01902953 145.79844587 -33 133 C-30 132 -30 132 -27.4765625 132.99609375 C-25.58071768 133.95440435 -23.68488428 134.91273756 -21.7890625 135.87109375 C-18.93909232 137.02465311 -17.03726657 137.22641442 -14 137 C-14.72703125 136.16082031 -14.72703125 136.16082031 -15.46875 135.3046875 C-24.71484296 124.24493784 -30.75086067 112.71912039 -35 99 C-35.39445312 97.79214844 -35.78890625 96.58429688 -36.1953125 95.33984375 C-36.97799957 92.09131245 -36.93346686 91.03852987 -36 88 C-35.66266846 88.46374023 -35.32533691 88.92748047 -34.9777832 89.40527344 C-33.42959449 91.52532518 -31.8711797 93.63765096 -30.3125 95.75 C-29.78205078 96.47960937 -29.25160156 97.20921875 -28.70507812 97.9609375 C-25.78984106 101.89561329 -23.04887835 105.1455032 -19 108 C-19.37511719 107.35417969 -19.75023438 106.70835937 -20.13671875 106.04296875 C-29.43071457 88.92984295 -30.80193564 72.21931288 -30 53 C-28.10771346 55.83842981 -27.30205505 58.19647189 -26.40112305 61.44726562 C-24.19302133 69.38214463 -21.34527161 75.59183577 -16 82 C-16.31022095 81.18378174 -16.31022095 81.18378174 -16.62670898 80.35107422 C-17.5693567 77.86117125 -18.50348182 75.36815225 -19.4375 72.875 C-19.76298828 72.0190625 -20.08847656 71.163125 -20.42382812 70.28125 C-25.26311549 57.30996427 -25.3615984 44.22484651 -21 31 C-20.34 30.34 -19.68 29.68 -19 29 C-18.76925781 30.18335938 -18.53851563 31.36671875 -18.30078125 32.5859375 C-16.23867677 42.73016118 -13.80285444 51.29571834 -8 60 C-8.20496094 59.07058594 -8.40992188 58.14117187 -8.62109375 57.18359375 C-8.89050781 55.94738281 -9.15992188 54.71117187 -9.4375 53.4375 C-9.70433594 52.21933594 -9.97117188 51.00117188 -10.24609375 49.74609375 C-14.14535212 30.37102237 -9.03559498 17.04829241 0 0 Z " fill="#FCFCFC" transform="translate(143,111)"/>
<path d="M0 0 C3.6986935 3.22617318 5.63842234 6.84612652 7.625 11.25 C7.9240625 11.88035156 8.223125 12.51070312 8.53125 13.16015625 C15.45900203 28.21115733 13.23020378 43.29121139 10 59 C16.79114665 49.14881099 18.57266493 39.80490067 20 28 C22 29 22 29 22.8515625 30.80078125 C27.17710084 44.84785777 26.15418031 59.27691007 21.09375 72.91015625 C19.83315365 75.92505492 19.83315365 75.92505492 20 79 C25.1056989 72.90152631 26.87162255 66.57479312 29 59 C29.65561458 56.99634984 30.31894955 54.9951478 31 53 C31.33 53 31.66 53 32 53 C32.86540272 73.91345525 29.83084016 90.12445849 21 109 C26.67252277 103.07021996 31.43604032 97.14463094 35.58984375 90.0546875 C36.05519531 89.37664062 36.52054687 88.69859375 37 88 C37.66 88 38.32 88 39 88 C35.95613552 106.10298348 28.2179981 123.16372401 16 137 C21.28808281 136.5499504 25.30630399 135.1496189 30.08203125 132.83984375 C32 132 32 132 34 132 C32.22528026 141.0131834 24.16436503 147.0459178 17 152 C4.32179931 160 4.32179931 160 1 160 C1 160.66 1 161.32 1 162 C1.78375 162.185625 2.5675 162.37125 3.375 162.5625 C8.43522666 164.56914161 12.84268617 167.4846819 17 171 C17.33 171.99 17.66 172.98 18 174 C12.80818142 175.73060619 7.30907841 175.18463392 1.875 175.1875 C0.67617188 175.19974609 -0.52265625 175.21199219 -1.7578125 175.22460938 C-3.52125 175.22750977 -3.52125 175.22750977 -5.3203125 175.23046875 C-6.38523926 175.23457764 -7.45016602 175.23868652 -8.54736328 175.24291992 C-12.82739013 174.94178665 -16.84349478 174.02934169 -21 173 C-20.99333817 172.28971146 -20.98667633 171.57942291 -20.97981262 170.84761047 C-20.9192689 164.0970022 -20.87380841 157.3464354 -20.84456348 150.59562397 C-20.829022 147.12637397 -20.80799976 143.65735152 -20.77368164 140.18823242 C-20.73432626 136.18406202 -20.72019588 132.18012412 -20.70703125 128.17578125 C-20.69154739 126.95232498 -20.67606354 125.72886871 -20.66011047 124.46833801 C-20.65872198 117.236173 -21.46943886 110.76821077 -23.31513977 103.76919556 C-24.22526494 100.08915331 -24.39968553 96.85172815 -24.375 93.0625 C-24.38273437 91.85722656 -24.39046875 90.65195313 -24.3984375 89.41015625 C-23.7225394 83.62526369 -21.07860124 79.84806348 -17.3125 75.5625 C-2.25232386 57.14637301 3.55539991 33.45849041 2 10 C1.51806263 6.60584277 0.891131 3.30991513 0 0 Z " fill="#FCFCFC" transform="translate(356,111)"/>
<path d="M0 0 C11.39259332 0.40734017 22.61873674 1.46057673 33.9296875 2.84765625 C34.64841286 2.93535656 35.36713821 3.02305687 36.10764313 3.11341476 C42.88252782 3.9411453 49.65578618 4.78166842 56.42724609 5.63696289 C85.99558303 9.36090867 112.48748372 8.55356292 142.02111816 4.82794189 C148.90045433 3.96153448 155.7818361 3.11190062 162.6641655 2.26963806 C165.04107978 1.97621638 167.41685922 1.67469002 169.79263306 1.37219238 C171.26357657 1.18990878 172.73455272 1.00788827 174.20556641 0.82617188 C175.47316803 0.66628784 176.74076965 0.50640381 178.04678345 0.3416748 C182.68196949 -0.05894233 187.34753358 0 192 0 C192 8.58 192 17.16 192 26 C165.08639866 26.87574184 138.19847115 27.15989022 111.27124023 27.13037109 C105.94962088 27.1246121 100.62805132 27.12801368 95.30643368 27.13394356 C91.11169573 27.13759147 86.91696924 27.13639241 82.72223091 27.13381577 C80.76070715 27.1331614 78.79918226 27.1339209 76.83765984 27.13629532 C63.52947041 27.1489125 50.28761632 26.74265614 37 26 C36.67 27.32 36.34 28.64 36 30 C36 28.68 36 27.36 36 26 C24.12 26 12.24 26 0 26 C0 17.42 0 8.84 0 0 Z " fill="#677386" transform="translate(154,342)"/>
<path d="M0 0 C1.47216728 -0.02398109 1.47216728 -0.02398109 2.97407532 -0.04844666 C4.0334581 -0.05380936 5.09284088 -0.05917206 6.18432617 -0.06469727 C7.27565353 -0.07372574 8.3669809 -0.08275421 9.49137878 -0.09205627 C11.80216727 -0.10657266 14.11299699 -0.11544895 16.42382812 -0.11914062 C19.95342658 -0.13102316 23.48126939 -0.18018619 27.01049805 -0.23071289 C29.25593222 -0.24017859 31.50137714 -0.24741292 33.74682617 -0.25219727 C35.32679131 -0.28149574 35.32679131 -0.28149574 36.93867493 -0.31138611 C45.12937102 -0.26114819 45.12937102 -0.26114819 48.81665039 2.72290039 C55.33930925 9.89931711 53.60436513 21.33951979 54.16479492 30.30639648 C31.72479492 30.30639648 9.28479492 30.30639648 -13.83520508 30.30639648 C-11.83520508 8.30639648 -11.83520508 8.30639648 -7.83520508 2.30639648 C-4.61825498 0.16176308 -3.71144222 0.0457321 0 0 Z " fill="#5E697C" transform="translate(229.835205078125,164.693603515625)"/>
<path d="M0 0 C3 4 3 4 3.8125 6.125 C5.64378397 9.016501 7.71073137 9.10000467 11 10 C14.57012002 10.64571731 18.15455023 11.14298348 21.75 11.625 C22.70777344 11.7590625 23.66554687 11.893125 24.65234375 12.03125 C29.30962684 12.73108867 29.30962684 12.73108867 34 13 C34.268125 12.13375 34.53625 11.2675 34.8125 10.375 C35.97183714 7.08004181 37.41229817 4.10580577 39 1 C43.84998024 0.27351198 48.18791547 -0.07051826 53 1 C56.33917183 4.58554714 58.20628024 8.46849745 60 13 C63.37114484 12.53123134 66.73947252 12.05160392 70.10546875 11.546875 C72.537864 11.20531498 74.97869329 10.91518735 77.42578125 10.703125 C83.21349954 10.24512072 83.21349954 10.24512072 87.8203125 7.09375 C89.04559526 5.10529112 90.0290345 3.11936633 91 1 C91.33 1 91.66 1 92 1 C92 8.26 92 15.52 92 23 C85.4375 26.0625 85.4375 26.0625 83.22119141 27.07128906 C79.74835548 28.65631349 76.38709502 30.31498052 73.0859375 32.234375 C63.80694915 37.44978171 63.80694915 37.44978171 58.390625 36.1015625 C55.0625 34.4375 55.0625 34.4375 50 31 C50 25.39 50 19.78 50 14 C47.36 14 44.72 14 42 14 C42 19.61 42 25.22 42 31 C37.72871425 33.90740167 34.9193118 35.75770979 30 37 C24.23672367 35.7612064 19.40436124 33.16198001 14.25 30.375 C12.86159068 29.66880394 11.47097133 28.96693529 10.078125 28.26953125 C6.6842475 26.56855217 3.35419565 24.78805086 0 23 C0 15.41 0 7.82 0 0 Z " fill="#606B7E" transform="translate(204,243)"/>
<path d="M0 0 C1.87301788 0.16506546 1.87301788 0.16506546 3.78387451 0.33346558 C9.87661212 0.94229087 15.96120615 1.61157481 22.04213333 2.32777596 C24.32289674 2.59595995 26.60415399 2.85953187 28.8855896 3.12193298 C35.36084951 3.86725291 41.83538264 4.61868507 48.30908203 5.37744141 C52.29921991 5.84478596 56.29009158 6.30538303 60.28147507 6.76196098 C61.78462382 6.93523442 63.28748799 7.11099806 64.79002762 7.28947639 C79.72153793 9.06206671 93.65211182 8.60448408 108.54931641 6.77172852 C110.24166781 6.56921494 111.93410852 6.36744643 113.62663269 6.16638184 C118.04848474 5.63962886 122.46937423 5.10523681 126.89001465 4.56842041 C133.98071566 3.70790777 141.0724084 2.85580116 148.1648922 2.01011658 C150.62861117 1.71470872 153.09163324 1.41393725 155.55464172 1.1126709 C157.07212929 0.93046039 158.58964009 0.74844332 160.10717773 0.56665039 C161.12115883 0.44041542 161.12115883 0.44041542 162.15562439 0.31163025 C166.38957257 -0.18921411 170.52010563 -0.52551183 174.77978516 -0.25952148 C177.71728516 2.11547852 177.71728516 2.11547852 179.77978516 4.74047852 C179.77978516 5.40047852 179.77978516 6.06047852 179.77978516 6.74047852 C159.95107819 9.35270654 140.11231794 11.84081286 120.23876953 14.08789062 C117.48305339 14.40009874 114.72831789 14.71958704 111.97412109 15.04492188 C107.89783727 15.52636295 103.81949583 15.98762789 99.74072266 16.44750977 C98.52701996 16.59323929 97.31331726 16.73896881 96.06283569 16.88911438 C88.11392847 17.76130636 80.71750163 17.62318891 72.77978516 16.74047852 C71.40217718 16.59448498 70.02453015 16.44885952 68.64685059 16.30354309 C63.90850934 15.79541717 59.17428402 15.25315383 54.43994141 14.70922852 C52.70171429 14.51110853 50.96346828 14.31315426 49.22520447 14.11535645 C45.60870403 13.70331689 41.99239313 13.28966406 38.3762207 12.87475586 C33.75111463 12.34416523 29.12561492 11.8171015 24.49997807 11.29116058 C20.92158909 10.88400064 17.34337997 10.47527809 13.76522636 10.0660553 C12.05929712 9.87108632 10.35332051 9.67653134 8.647295 9.48240662 C6.26688091 9.21124919 3.88670902 8.93805605 1.5065918 8.66430664 C0.80987869 8.58531631 0.11316559 8.50632599 -0.60466003 8.42494202 C-4.49941414 7.97450727 -8.35868765 7.41896532 -12.22021484 6.74047852 C-10.76046102 2.11792475 -10.76046102 2.11792475 -8.53085327 0.56019592 C-5.49100082 -0.51821597 -3.21074748 -0.28884224 0 0 Z " fill="#9EABC9" transform="translate(166.22021484375,327.259521484375)"/>
<path d="M0 0 C0.90009293 -0.00807175 1.80018585 -0.01614349 2.72755432 -0.02445984 C4.63320996 -0.03830027 6.53889039 -0.04902261 8.44458008 -0.05688477 C11.36391804 -0.07413021 14.28213307 -0.1180196 17.20117188 -0.16210938 C19.05077291 -0.17223334 20.90038358 -0.18075037 22.75 -0.1875 C23.62506699 -0.20500809 24.50013397 -0.22251617 25.40171814 -0.24055481 C31.44396335 -0.2188431 31.44396335 -0.2188431 33.95654297 2.09008789 C35.14728802 4.68735256 35.9357477 7.21564704 36.62890625 9.98828125 C36.88027344 10.973125 37.13164062 11.95796875 37.390625 12.97265625 C37.57238281 13.7203125 37.75414062 14.46796875 37.94140625 15.23828125 C35.30140625 15.89828125 32.66140625 16.55828125 29.94140625 17.23828125 C29.28140625 14.26828125 28.62140625 11.29828125 27.94140625 8.23828125 C16.72140625 8.23828125 5.50140625 8.23828125 -6.05859375 8.23828125 C-6.71859375 11.20828125 -7.37859375 14.17828125 -8.05859375 17.23828125 C-10.36859375 16.57828125 -12.67859375 15.91828125 -15.05859375 15.23828125 C-12.97741294 5.07591963 -12.97741294 5.07591963 -11.05859375 1.23828125 C-7.64826852 -0.46688137 -3.75393766 0.03161596 0 0 Z " fill="#020202" transform="translate(239.05859375,171.76171875)"/>
<path d="M0 0 C3.83153963 1.06851601 7.65808287 2.15319549 11.48071289 3.25317383 C12.78217094 3.62518136 14.08491494 3.99271997 15.38891602 4.35571289 C17.26128578 4.87775437 19.12879043 5.4171478 20.99609375 5.95703125 C22.12200928 6.27647705 23.2479248 6.59592285 24.40795898 6.92504883 C25.26333252 7.27978271 26.11870605 7.6345166 27 8 C28 11 28 11 27.0625 13.6875 C25 16 25 16 21.5 16.4375 C19.99809519 16.31280311 18.49806325 16.16454137 17 16 C16.08992188 15.98582031 15.17984375 15.97164062 14.2421875 15.95703125 C11.08229129 15.72886436 8.86470326 15.37784814 6 14 C3.05918019 10.04880255 0 5.06670937 0 0 Z " fill="#73C329" transform="translate(208,232)"/>
<path d="M0 0 C-1.52878273 4.38519256 -3.20191829 8.27268521 -6 12 C-9.98162728 13.75125515 -13.68417709 13.96542732 -18 14 C-19.15435547 14.04253906 -19.15435547 14.04253906 -20.33203125 14.0859375 C-21.88796183 14.11762651 -23.44535197 14.07066582 -25 14 C-25.99 11.69 -26.98 9.38 -28 7 C-24.58415928 5.8516942 -21.16718858 4.70678792 -17.75 3.5625 C-16.78191406 3.23701172 -15.81382812 2.91152344 -14.81640625 2.57617188 C-13.88183594 2.26357422 -12.94726562 1.95097656 -11.984375 1.62890625 C-11.12553711 1.34088135 -10.26669922 1.05285645 -9.38183594 0.75610352 C-3.41455347 -1.13818449 -3.41455347 -1.13818449 0 0 Z " fill="#74C32B" transform="translate(292,234)"/>
<path d="M0 0 C6.6 0 13.2 0 20 0 C15.89356693 4.10643307 11.74320279 7.05892174 6.9375 10.25 C6.12216797 10.80429687 5.30683594 11.35859375 4.46679688 11.9296875 C3.68240234 12.45304687 2.89800781 12.97640625 2.08984375 13.515625 C1.37691162 13.99290039 0.66397949 14.47017578 -0.07055664 14.96191406 C-2 16 -2 16 -5 16 C-3.35 10.72 -1.7 5.44 0 0 Z " fill="#000000" transform="translate(191,368)"/>
<path d="M0 0 C6.27 0 12.54 0 19 0 C20.010625 2.59875 21.02125 5.1975 22.0625 7.875 C22.38484619 8.69210449 22.70719238 9.50920898 23.03930664 10.35107422 C23.75021213 12.21315792 24.37751452 14.10652326 25 16 C24.67 16.66 24.34 17.32 24 18 C23.02160156 17.27554687 22.04320312 16.55109375 21.03515625 15.8046875 C11.39529026 8.68942899 11.39529026 8.68942899 1.44140625 2.0234375 C0.96574219 1.68570312 0.49007813 1.34796875 0 1 C0 0.67 0 0.34 0 0 Z " fill="#000000" transform="translate(289,368)"/>
<path d="M0 0 C1.98 0 3.96 0 6 0 C8 2 8 2 8.1953125 5.9140625 C8.18200376 7.48449351 8.15813602 9.05486221 8.125 10.625 C8.11597656 11.42679688 8.10695313 12.22859375 8.09765625 13.0546875 C8.07406223 15.03658523 8.03819065 17.01832981 8 19 C5.36 19 2.72 19 0 19 C0 12.73 0 6.46 0 0 Z " fill="#657084" transform="translate(319,230)"/>
<path d="M0 0 C1.98 0 3.96 0 6 0 C6 6.27 6 12.54 6 19 C3.69 19 1.38 19 -1 19 C-1.02683987 16.02077407 -1.04676037 13.04178705 -1.0625 10.0625 C-1.07087891 9.21236328 -1.07925781 8.36222656 -1.08789062 7.48632812 C-1.09111328 6.67744141 -1.09433594 5.86855469 -1.09765625 5.03515625 C-1.10289307 4.2862915 -1.10812988 3.53742676 -1.11352539 2.76586914 C-1 1 -1 1 0 0 Z " fill="#657084" transform="translate(175,230)"/>
<path d="M0 0 C2.6875 1 2.6875 1 4.6875 3 C2.49683391 5.23603491 0.31079831 7.28092475 -2.3125 9 C-5.625 9 -5.625 9 -8.3125 8 C-8.9725 7.34 -9.6325 6.68 -10.3125 6 C-4.43423913 0 -4.43423913 0 0 0 Z " fill="#A9B7D4" transform="translate(187.3125,284)"/>
<path d="M0 0 C3.21808828 1.41974483 5.49665917 3.60783426 8.125 5.9375 C5.9187818 7.98029463 4.74122536 8.92169935 1.6875 9 C-2.01928873 7.46303882 -3.49122343 5.1385714 -5.875 1.9375 C-3.82528131 0.69302794 -2.42641102 -0.08088037 0 0 Z " fill="#ABB9D6" transform="translate(314.875,284.0625)"/>
<path d="M0 0 C2.64 0 5.28 0 8 0 C8 3.63 8 7.26 8 11 C2.25 7.25 2.25 7.25 0 5 C-0.125 2.375 -0.125 2.375 0 0 Z " fill="#B2C1DF" transform="translate(319,272)"/>
<path d="M0 0 C2.64 0 5.28 0 8 0 C8 2.64 8 5.28 8 8 C5.36 8 2.72 8 0 8 C0 5.36 0 2.72 0 0 Z " fill="#020202" transform="translate(246,291)"/>
<path d="M0 0 C0.86625 0.433125 1.7325 0.86625 2.625 1.3125 C2.625 1.9725 2.625 2.6325 2.625 3.3125 C0.52904479 5.36013347 -1.77370926 6.96885809 -4.375 8.3125 C-7.3125 8.125 -7.3125 8.125 -9.375 7.3125 C-9.375 4.3125 -9.375 4.3125 -6.75 1.5 C-3.96781714 -0.72574628 -3.74231697 -0.76232383 0 0 Z " fill="#AEBBD9" transform="translate(202.375,290.6875)"/>
<path d="M0 0 C1.33897583 0.95043374 2.67105427 1.91059147 4 2.875 C4.7425 3.40867187 5.485 3.94234375 6.25 4.4921875 C6.8275 4.98976563 7.405 5.48734375 8 6 C8 6.66 8 7.32 8 8 C5.375 8.8125 5.375 8.8125 2 9 C-0.47666778 7.60547986 -1.97559416 6.07260598 -4 4 C-4 3.34 -4 2.68 -4 2 C-2.68 1.34 -1.36 0.68 0 0 Z " fill="#B0BEDD" transform="translate(300,290)"/>
<path d="M0 0 C2.31 0 4.62 0 7 0 C7.3125 2.75 7.3125 2.75 7 6 C4.625 8.375 4.625 8.375 2 10 C1.34 10 0.68 10 0 10 C0 6.7 0 3.4 0 0 Z " fill="#B1BFDD" transform="translate(174,272)"/>
<path d="M0 0 C2.64 0 5.28 0 8 0 C8 2.31 8 4.62 8 7 C5.36 7 2.72 7 0 7 C0 4.69 0 2.38 0 0 Z " fill="#010202" transform="translate(246,307)"/>
<path d="M0 0 C0.625 2.3125 0.625 2.3125 1 5 C0.01 6.485 0.01 6.485 -1 8 C-3.97 7.67 -6.94 7.34 -10 7 C-4.65789474 0 -4.65789474 0 0 0 Z " fill="#ADBBD9" transform="translate(215,297)"/>
<path d="M0 0 C2.64 0 5.28 0 8 0 C8 2.31 8 4.62 8 7 C5.36 7 2.72 7 0 7 C0 4.69 0 2.38 0 0 Z " fill="#91A2B8" transform="translate(319,257)"/>
<path d="M0 0 C3.43927579 1.2419607 6.25207819 2.55740284 9 5 C9 5.66 9 6.32 9 7 C6.23749964 8.38125018 4.05268901 8.19079306 1 8 C-1 6 -1 6 -1.1875 3.4375 C-1 1 -1 1 0 0 Z " fill="#B2C0DF" transform="translate(286,297)"/>
<path d="M0 0 C2.31 0 4.62 0 7 0 C7 2.31 7 4.62 7 7 C4.69 7 2.38 7 0 7 C0 4.69 0 2.38 0 0 Z " fill="#91A1B7" transform="translate(174,257)"/>
<path d="M0 0 C1.98 0.66 3.96 1.32 6 2 C5.34 3.32 4.68 4.64 4 6 C3.34 6 2.68 6 2 6 C1.34 4.02 0.68 2.04 0 0 Z " fill="#77C236" transform="translate(208,232)"/>
</svg>
